<svg height="512" viewBox="0 0 256 256" width="512" xmlns="http://www.w3.org/2000/svg"><g id="Layer_47"><g><g><g><path d="m88.115 30.118v45.165l37.404 17.284v-45.165z" fill="#3caadc"/></g></g><g><g><path d="m125.519 47.402v45.165l37.405-17.284v-45.165z" fill="#70d6f9"/></g></g><g><g><path d="m125.519 11.912-37.404 18.206 37.404 17.284 37.405-17.284z" fill="#9be5f9"/></g></g><g><g><path d="m13.076 177.64v45.165l37.405 17.283v-45.164z" fill="#3caadc"/></g></g><g><g><path d="m50.481 194.924v45.164l37.519-17.283v-45.349z" fill="#70d6f9"/></g></g><g><g><path d="m50.481 159.433-37.405 18.207 37.405 17.284 37.519-17.468z" fill="#9be5f9"/></g></g><g><g><path d="m88 177.456v45.349l37.519 17.283v-45.164z" fill="#3caadc"/></g></g><g><g><path d="m125.519 194.924v45.164l37.52-17.283v-45.349z" fill="#70d6f9"/></g></g><g><g><path d="m125.519 159.433-37.519 18.023 37.519 17.468 37.52-17.468z" fill="#9be5f9"/></g></g><g><g><path d="m163.039 177.456v45.349l37.519 17.283v-45.164z" fill="#3caadc"/></g></g><g><g><path d="m200.558 194.924v45.164l37.404-17.283v-45.165z" fill="#70d6f9"/></g></g><g><g><path d="m200.558 159.433-37.519 18.023 37.519 17.468 37.404-17.284z" fill="#9be5f9"/></g></g><g><g><path d="m125.519 114.64v44.793l37.52 18.023v-45.532z" fill="#3caadc"/></g></g><g><g><path d="m163.039 131.924v45.532l37.404-18.023v-44.793z" fill="#70d6f9"/></g></g><g><g><path d="m163.039 96.433-37.52 18.207 37.52 17.284 37.404-17.284z" fill="#9be5f9"/></g></g><g><g><path d="m50.596 114.64v44.793l37.404 18.023v-45.532z" fill="#3caadc"/></g></g><g><g><path d="m88 131.924v45.532l37.519-18.023v-44.793z" fill="#70d6f9"/></g></g><g><g><path d="m88 96.433-37.404 18.207 37.404 17.284 37.519-17.284z" fill="#9be5f9"/></g></g><g><g><path d="m77.959 20.85c-4.5-.8-8-4.3-8.9-8.7 0-.2-.4-.2-.4 0-.9 4.4-4.4 7.9-8.9 8.7-.2 0-.2.3 0 .4 4.5.8 8 4.3 8.9 8.7 0 .2.4.2.4 0 .9-4.4 4.4-7.9 8.9-8.7.2-.1.2-.4 0-.4z" fill="#f5c84c"/></g></g><g><g><path d="m225.876 121.21c-3.158-.561-5.613-3.017-6.245-6.104 0-.14-.281-.14-.281 0-.631 3.087-3.087 5.543-6.245 6.104-.14 0-.14.21 0 .281 3.158.562 5.613 3.017 6.245 6.104 0 .14.281.14.281 0 .631-3.087 3.087-5.543 6.245-6.104.14-.071.14-.281 0-.281z" fill="#fc657e"/></g></g><g><g><path d="m147.959 249.2c-1.878 0-3.4 1.522-3.4 3.4s1.522 3.4 3.4 3.4 3.4-1.522 3.4-3.4-1.523-3.4-3.4-3.4z" fill="#f5c84c"/></g></g><g><g><path d="m94.959 0c-1.878 0-3.4 1.522-3.4 3.4s1.522 3.4 3.4 3.4 3.4-1.522 3.4-3.4-1.523-3.4-3.4-3.4z" fill="#70d6f9"/></g></g><g><g><path d="m94.2 244.1h-2.3v-2.3c0-1.7-1.4-3.2-3.2-3.2s-3.2 1.4-3.2 3.2v2.3h-2.3c-1.7 0-3.2 1.4-3.2 3.2s1.4 3.2 3.2 3.2h2.3v2.3c0 1.7 1.4 3.2 3.2 3.2s3.2-1.4 3.2-3.2v-2.3h2.3c1.7 0 3.2-1.4 3.2-3.2s-1.4-3.2-3.2-3.2z" fill="#87d147"/></g></g><g><g><path d="m50.481 192.424c-1.381 0-2.5 1.119-2.5 2.5v41.255l-32.405-14.973v-43.566c0-1.381-1.119-2.5-2.5-2.5s-2.5 1.119-2.5 2.5v45.165c0 .975.566 1.86 1.451 2.27l37.405 17.284c.334.154.692.23 1.049.23.47 0 .938-.133 1.347-.394.719-.459 1.153-1.253 1.153-2.106v-45.165c0-1.381-1.119-2.5-2.5-2.5z"/></g></g><g><g><path d="m88 174.956c-1.381 0-2.5 1.119-2.5 2.5v43.748l-36.065 16.614c-1.254.578-1.802 2.063-1.225 3.316.421.916 1.326 1.455 2.272 1.455.35 0 .706-.074 1.044-.23l37.519-17.284c.886-.408 1.454-1.295 1.454-2.271v-45.349c.001-1.38-1.118-2.499-2.499-2.499z"/></g></g><g><g><g><path d="m89.083 175.203-37.52-18.023c-.688-.331-1.49-.328-2.177.005l-37.404 18.207c-.868.423-1.416 1.308-1.406 2.273s.575 1.839 1.451 2.244l37.405 17.284c.333.154.691.23 1.049.23.36 0 .721-.078 1.055-.233l37.519-17.468c.876-.408 1.439-1.285 1.445-2.251s-.546-1.85-1.417-2.268zm-38.606 16.965-31.568-14.587 31.579-15.371 31.665 15.211z"/></g></g></g><g><g><path d="m126.565 237.818-37.519-17.284c-1.253-.577-2.739-.03-3.316 1.225-.578 1.254-.03 2.739 1.225 3.316l37.519 17.284c.339.156.694.23 1.044.23.945 0 1.851-.539 2.272-1.455.577-1.254.029-2.738-1.225-3.316z"/></g></g><g><g><path d="m165.309 221.759c-.578-1.254-2.062-1.802-3.316-1.225l-33.974 15.65v-41.26c0-1.381-1.119-2.5-2.5-2.5s-2.5 1.119-2.5 2.5v45.165c0 .852.434 1.646 1.152 2.105.409.262.877.395 1.348.395.356 0 .713-.076 1.046-.229l37.52-17.284c1.253-.578 1.802-2.063 1.224-3.317z"/></g></g><g><g><g><path d="m164.121 175.203-37.52-18.023c-.685-.329-1.48-.329-2.165 0l-37.519 18.023c-.871.418-1.423 1.302-1.417 2.269s.568 1.843 1.445 2.251l37.519 17.468c.334.156.695.233 1.055.233s.721-.078 1.055-.233l37.52-17.468c.876-.408 1.439-1.285 1.445-2.251s-.547-1.851-1.418-2.269zm-38.602 16.963-31.672-14.745 31.672-15.214 31.672 15.214z"/></g></g></g><g><g><path d="m201.604 237.818-36.065-16.614v-39.826l33.964 15.813c1.251.583 2.739.041 3.322-1.211.583-1.251.04-2.739-1.211-3.322l-37.519-17.468c-.774-.36-1.678-.301-2.399.159-.72.459-1.156 1.254-1.156 2.108v45.349c0 .976.568 1.862 1.454 2.271l37.519 17.284c.339.156.694.23 1.044.23.945 0 1.851-.539 2.272-1.455.577-1.256.029-2.74-1.225-3.318z"/></g></g><g><g><g><path d="m239.309 175.534c-.718-.46-1.621-.521-2.396-.164l-37.405 17.284c-.885.409-1.451 1.295-1.451 2.27v45.165c0 .853.435 1.646 1.153 2.106.408.262.876.394 1.347.394.357 0 .715-.076 1.049-.23l37.405-17.284c.885-.409 1.451-1.295 1.451-2.27v-45.165c0-.853-.434-1.647-1.153-2.106zm-3.847 45.672-32.405 14.973v-39.657l32.405-14.974z"/></g></g></g><g><g><path d="m239.057 175.392-37.405-18.207c-.687-.334-1.489-.337-2.177-.005l-37.519 18.023c-1.245.598-1.769 2.091-1.171 3.336.598 1.244 2.091 1.771 3.336 1.171l36.429-17.5 36.318 17.678c.353.171.725.252 1.092.252.927 0 1.817-.517 2.25-1.406.604-1.242.088-2.738-1.153-3.342z"/></g></g><g><g><path d="m125.519 112.14c-1.381 0-2.5 1.119-2.5 2.5v44.793c0 1.381 1.119 2.5 2.5 2.5s2.5-1.119 2.5-2.5v-44.793c0-1.381-1.119-2.5-2.5-2.5z"/></g></g><g><g><path d="m200.443 112.14c-1.381 0-2.5 1.119-2.5 2.5v44.793c0 1.381 1.119 2.5 2.5 2.5s2.5-1.119 2.5-2.5v-44.793c0-1.381-1.119-2.5-2.5-2.5z"/></g></g><g><g><path d="m163.039 129.424c-1.381 0-2.5 1.119-2.5 2.5v45.532c0 1.381 1.119 2.5 2.5 2.5s2.5-1.119 2.5-2.5v-45.532c0-1.381-1.12-2.5-2.5-2.5z"/></g></g><g><g><g><path d="m201.537 112.392-37.404-18.207c-.69-.335-1.496-.336-2.186-.001l-37.52 18.207c-.87.422-1.418 1.308-1.409 2.274.01.967.576 1.841 1.454 2.246l37.52 17.284c.332.153.689.229 1.046.229.358 0 .716-.077 1.049-.23l37.404-17.284c.876-.405 1.441-1.279 1.451-2.244.011-.967-.537-1.852-1.405-2.274zm-38.5 16.778-31.67-14.589 31.67-15.368 31.573 15.368z"/></g></g></g><g><g><path d="m50.596 112.14c-1.381 0-2.5 1.119-2.5 2.5v44.793c0 1.381 1.119 2.5 2.5 2.5s2.5-1.119 2.5-2.5v-44.793c0-1.381-1.119-2.5-2.5-2.5z"/></g></g><g><g><path d="m88 129.424c-1.381 0-2.5 1.119-2.5 2.5v45.532c0 1.381 1.119 2.5 2.5 2.5s2.5-1.119 2.5-2.5v-45.532c0-1.381-1.119-2.5-2.5-2.5z"/></g></g><g><g><g><path d="m126.61 112.391-37.519-18.207c-.69-.335-1.496-.334-2.186.001l-37.404 18.207c-.868.423-1.416 1.308-1.406 2.273s.575 1.839 1.451 2.244l37.404 17.284c.333.154.691.23 1.049.23.357 0 .714-.077 1.046-.229l37.519-17.284c.878-.404 1.444-1.279 1.454-2.246.011-.966-.538-1.851-1.408-2.273zm-38.609 16.779-31.573-14.589 31.573-15.368 31.67 15.368z"/></g></g></g><g><g><g><path d="m126.568 45.133-37.404-17.284c-.774-.357-1.677-.295-2.396.164s-1.153 1.253-1.153 2.106v45.165c0 .975.566 1.86 1.451 2.27l37.404 17.284c.334.154.692.23 1.049.23.47 0 .938-.133 1.347-.394.719-.459 1.153-1.253 1.153-2.106v-45.166c0-.974-.566-1.86-1.451-2.269zm-3.549 43.525-32.404-14.973v-39.658l32.404 14.974z"/></g></g></g><g><g><path d="m162.924 27.618c-1.381 0-2.5 1.119-2.5 2.5v43.566l-35.954 16.613c-1.253.579-1.8 2.065-1.221 3.318.422.914 1.327 1.452 2.271 1.452.351 0 .708-.074 1.047-.231l37.405-17.284c.885-.409 1.451-1.295 1.451-2.27v-45.164c.001-1.381-1.118-2.5-2.499-2.5z"/></g></g><g><g><path d="m164.018 27.87-37.405-18.206c-.69-.336-1.498-.336-2.188 0l-37.404 18.206c-1.241.604-1.758 2.101-1.154 3.342.605 1.242 2.101 1.758 3.342 1.154l36.31-17.674 31.572 15.368-32.621 15.073c-1.253.579-1.8 2.065-1.221 3.318.422.914 1.327 1.452 2.271 1.452.351 0 .708-.074 1.047-.231l37.405-17.284c.876-.405 1.441-1.279 1.451-2.244.011-.966-.537-1.851-1.405-2.274z"/></g></g></g></g></svg>